<svg id="visual" viewBox="0 0 960 540" width="960" height="540" xmlns="http://www.w3.org/2000/svg" xmlns:xlink="http://www.w3.org/1999/xlink" version="1.1"><rect x="0" y="0" width="960" height="540" fill="#140021"></rect><path d="M0 251L137 251L137 282L274 282L274 330L411 330L411 293L549 293L549 277L686 277L686 340L823 340L823 342L960 342L960 342L960 541L960 541L823 541L823 541L686 541L686 541L549 541L549 541L411 541L411 541L274 541L274 541L137 541L137 541L0 541Z" fill="#9900ff"></path><path d="M0 418L137 418L137 389L274 389L274 387L411 387L411 332L549 332L549 354L686 354L686 378L823 378L823 405L960 405L960 316L960 541L960 541L823 541L823 541L686 541L686 541L549 541L549 541L411 541L411 541L274 541L274 541L137 541L137 541L0 541Z" fill="#7700c6"></path><path d="M0 424L137 424L137 466L274 466L274 428L411 428L411 432L549 432L549 458L686 458L686 415L823 415L823 415L960 415L960 465L960 541L960 541L823 541L823 541L686 541L686 541L549 541L549 541L411 541L411 541L274 541L274 541L137 541L137 541L0 541Z" fill="#560090"></path></svg>