<svg id="visual" viewBox="0 0 960 540" width="960" height="540" xmlns="http://www.w3.org/2000/svg" xmlns:xlink="http://www.w3.org/1999/xlink" version="1.1"><g stroke-width="1" stroke-linejoin="bevel"><path d="M500.3 261L422.7 281L527.3 342Z" fill="#0b2059" stroke="#0b2059"></path><path d="M422.7 281L437.7 376L527.3 342Z" fill="#031f51" stroke="#031f51"></path><path d="M422.7 281L356 341L437.7 376Z" fill="#152161" stroke="#152161"></path><path d="M356 341L395.7 429L437.7 376Z" fill="#00101c" stroke="#00101c"></path><path d="M437.7 376L526.3 463L527.3 342Z" fill="#031f51" stroke="#031f51"></path><path d="M458.7 145L341 245L422.7 281Z" fill="#001a37" stroke="#001a37"></path><path d="M422.7 281L341 245L356 341Z" fill="#00101c" stroke="#00101c"></path><path d="M395.7 429L526.3 463L437.7 376Z" fill="#00101c" stroke="#00101c"></path><path d="M500.3 261L458.7 145L422.7 281Z" fill="#2a206f" stroke="#2a206f"></path><path d="M500.3 261L536.3 150L458.7 145Z" fill="#031f51" stroke="#031f51"></path><path d="M630 217L536.3 150L500.3 261Z" fill="#031f51" stroke="#031f51"></path><path d="M630 217L500.3 261L527.3 342Z" fill="#00172e" stroke="#00172e"></path><path d="M526.3 463L611 437L527.3 342Z" fill="#152161" stroke="#152161"></path><path d="M676 249L630 217L527.3 342Z" fill="#001e49" stroke="#001e49"></path><path d="M611 437L666 388L527.3 342Z" fill="#1f2168" stroke="#1f2168"></path><path d="M666 388L676 249L527.3 342Z" fill="#001425" stroke="#001425"></path><path d="M631 118L547.3 86L536.3 150Z" fill="#001a37" stroke="#001a37"></path><path d="M356 341L336 480L395.7 429Z" fill="#2a206f" stroke="#2a206f"></path><path d="M395.7 429L400.7 540L526.3 463Z" fill="#001c40" stroke="#001c40"></path><path d="M183.3 386L336 480L356 341Z" fill="#152161" stroke="#152161"></path><path d="M458.7 145L317 142L341 245Z" fill="#001a37" stroke="#001a37"></path><path d="M341 245L237.3 284L356 341Z" fill="#1f2168" stroke="#1f2168"></path><path d="M336 480L400.7 540L395.7 429Z" fill="#001425" stroke="#001425"></path><path d="M526.3 463L551.3 540L611 437Z" fill="#00172e" stroke="#00172e"></path><path d="M219.3 177L237.3 284L341 245Z" fill="#001a37" stroke="#001a37"></path><path d="M400.7 540L551.3 540L526.3 463Z" fill="#00101c" stroke="#00101c"></path><path d="M611 437L740.7 418L666 388Z" fill="#031f51" stroke="#031f51"></path><path d="M740.7 418L708.7 353L666 388Z" fill="#00101c" stroke="#00101c"></path><path d="M666 388L708.7 353L676 249Z" fill="#0b2059" stroke="#0b2059"></path><path d="M536.3 150L547.3 86L458.7 145Z" fill="#0b2059" stroke="#0b2059"></path><path d="M458.7 145L457.7 58L317 142Z" fill="#00172e" stroke="#00172e"></path><path d="M631 118L536.3 150L630 217Z" fill="#00172e" stroke="#00172e"></path><path d="M709.7 89L631 118L630 217Z" fill="#2a206f" stroke="#2a206f"></path><path d="M547.3 86L457.7 58L458.7 145Z" fill="#1f2168" stroke="#1f2168"></path><path d="M551.3 540L616 540L611 437Z" fill="#00101c" stroke="#00101c"></path><path d="M727.7 540L740.7 418L611 437Z" fill="#0b2059" stroke="#0b2059"></path><path d="M708.7 353L783.7 240L676 249Z" fill="#001425" stroke="#001425"></path><path d="M676 249L709.7 89L630 217Z" fill="#0b2059" stroke="#0b2059"></path><path d="M317 142L219.3 177L341 245Z" fill="#00101c" stroke="#00101c"></path><path d="M193.3 86L219.3 177L317 142Z" fill="#031f51" stroke="#031f51"></path><path d="M336 480L287 540L400.7 540Z" fill="#152161" stroke="#152161"></path><path d="M219.3 480L287 540L336 480Z" fill="#031f51" stroke="#031f51"></path><path d="M121.7 263L183.3 386L237.3 284Z" fill="#1f2168" stroke="#1f2168"></path><path d="M237.3 284L183.3 386L356 341Z" fill="#152161" stroke="#152161"></path><path d="M183.3 386L219.3 480L336 480Z" fill="#00172e" stroke="#00172e"></path><path d="M457.7 58L306 55L317 142Z" fill="#031f51" stroke="#031f51"></path><path d="M538.3 0L456.7 0L457.7 58Z" fill="#00172e" stroke="#00172e"></path><path d="M457.7 58L456.7 0L306 55Z" fill="#001e49" stroke="#001e49"></path><path d="M538.3 0L457.7 58L547.3 86Z" fill="#001e49" stroke="#001e49"></path><path d="M825.3 266L783.7 240L708.7 353Z" fill="#001a37" stroke="#001a37"></path><path d="M671 0L538.3 0L547.3 86Z" fill="#001425" stroke="#001425"></path><path d="M671 0L547.3 86L631 118Z" fill="#2a206f" stroke="#2a206f"></path><path d="M778.7 183L709.7 89L676 249Z" fill="#001a37" stroke="#001a37"></path><path d="M219.3 480L232.3 540L287 540Z" fill="#031f51" stroke="#031f51"></path><path d="M135.7 540L232.3 540L219.3 480Z" fill="#2a206f" stroke="#2a206f"></path><path d="M783.7 240L778.7 183L676 249Z" fill="#001c40" stroke="#001c40"></path><path d="M616 540L727.7 540L611 437Z" fill="#152161" stroke="#152161"></path><path d="M740.7 418L816.3 394L708.7 353Z" fill="#001e49" stroke="#001e49"></path><path d="M858.3 540L816.3 394L740.7 418Z" fill="#001c40" stroke="#001c40"></path><path d="M783.7 240L857.3 170L778.7 183Z" fill="#001c40" stroke="#001c40"></path><path d="M118.7 150L121.7 263L219.3 177Z" fill="#0b2059" stroke="#0b2059"></path><path d="M219.3 177L121.7 263L237.3 284Z" fill="#001e49" stroke="#001e49"></path><path d="M79.7 481L135.7 540L219.3 480Z" fill="#00101c" stroke="#00101c"></path><path d="M816.3 394L825.3 266L708.7 353Z" fill="#001a37" stroke="#001a37"></path><path d="M456.7 0L303 0L306 55Z" fill="#001a37" stroke="#001a37"></path><path d="M306 55L193.3 86L317 142Z" fill="#0b2059" stroke="#0b2059"></path><path d="M180.3 0L193.3 86L306 55Z" fill="#152161" stroke="#152161"></path><path d="M779.7 0L671 0L709.7 89Z" fill="#152161" stroke="#152161"></path><path d="M709.7 89L671 0L631 118Z" fill="#152161" stroke="#152161"></path><path d="M193.3 86L118.7 150L219.3 177Z" fill="#0b2059" stroke="#0b2059"></path><path d="M0 277L77.7 360L121.7 263Z" fill="#001c40" stroke="#001c40"></path><path d="M121.7 263L77.7 360L183.3 386Z" fill="#001a37" stroke="#001a37"></path><path d="M79.7 481L219.3 480L183.3 386Z" fill="#031f51" stroke="#031f51"></path><path d="M825.3 266L857.3 170L783.7 240Z" fill="#1f2168" stroke="#1f2168"></path><path d="M778.7 183L851.3 62L709.7 89Z" fill="#001c40" stroke="#001c40"></path><path d="M960 232L857.3 170L825.3 266Z" fill="#152161" stroke="#152161"></path><path d="M193.3 86L102.7 124L118.7 150Z" fill="#001425" stroke="#001425"></path><path d="M0 153L0 277L121.7 263Z" fill="#001c40" stroke="#001c40"></path><path d="M91.7 0L102.7 124L193.3 86Z" fill="#152161" stroke="#152161"></path><path d="M77.7 360L79.7 481L183.3 386Z" fill="#001e49" stroke="#001e49"></path><path d="M303 0L180.3 0L306 55Z" fill="#001c40" stroke="#001c40"></path><path d="M858.3 540L891.3 417L816.3 394Z" fill="#152161" stroke="#152161"></path><path d="M816.3 394L960 338L825.3 266Z" fill="#001c40" stroke="#001c40"></path><path d="M851.3 62L779.7 0L709.7 89Z" fill="#1f2168" stroke="#1f2168"></path><path d="M727.7 540L858.3 540L740.7 418Z" fill="#001425" stroke="#001425"></path><path d="M960 154L851.3 62L857.3 170Z" fill="#152161" stroke="#152161"></path><path d="M857.3 170L851.3 62L778.7 183Z" fill="#001c40" stroke="#001c40"></path><path d="M0 153L118.7 150L102.7 124Z" fill="#2a206f" stroke="#2a206f"></path><path d="M0 153L121.7 263L118.7 150Z" fill="#2a206f" stroke="#2a206f"></path><path d="M77.7 360L0 461L79.7 481Z" fill="#001c40" stroke="#001c40"></path><path d="M0 277L0 354L77.7 360Z" fill="#00101c" stroke="#00101c"></path><path d="M960 441L960 338L891.3 417Z" fill="#001425" stroke="#001425"></path><path d="M891.3 417L960 338L816.3 394Z" fill="#00101c" stroke="#00101c"></path><path d="M960 338L960 232L825.3 266Z" fill="#2a206f" stroke="#2a206f"></path><path d="M180.3 0L91.7 0L193.3 86Z" fill="#00172e" stroke="#00172e"></path><path d="M0 354L0 461L77.7 360Z" fill="#001e49" stroke="#001e49"></path><path d="M79.7 481L0 540L135.7 540Z" fill="#001c40" stroke="#001c40"></path><path d="M0 57L0 153L102.7 124Z" fill="#00101c" stroke="#00101c"></path><path d="M858.3 540L960 441L891.3 417Z" fill="#00172e" stroke="#00172e"></path><path d="M960 232L960 154L857.3 170Z" fill="#2a206f" stroke="#2a206f"></path><path d="M851.3 62L881.3 0L779.7 0Z" fill="#001c40" stroke="#001c40"></path><path d="M960 61L881.3 0L851.3 62Z" fill="#1f2168" stroke="#1f2168"></path><path d="M0 461L0 540L79.7 481Z" fill="#0b2059" stroke="#0b2059"></path><path d="M858.3 540L960 540L960 441Z" fill="#00101c" stroke="#00101c"></path><path d="M91.7 0L0 57L102.7 124Z" fill="#152161" stroke="#152161"></path><path d="M960 154L960 61L851.3 62Z" fill="#2a206f" stroke="#2a206f"></path><path d="M91.7 0L0 0L0 57Z" fill="#1f2168" stroke="#1f2168"></path><path d="M960 61L960 0L881.3 0Z" fill="#00101c" stroke="#00101c"></path></g></svg>